<svg width="116" height="147" viewBox="0 0 116 147" fill="none" xmlns="http://www.w3.org/2000/svg">
    <path d="M35.952 82.184C38.128 82.184 40.064 81.832 41.76 81.128C43.488 80.392 44.944 79.352 46.128 78.008C47.312 76.664 48.208 75.032 48.816 73.112C49.456 71.16 49.776 68.952 49.776 66.488V25.064H66V66.488C66 70.776 65.296 74.712 63.888 78.296C62.512 81.88 60.528 84.968 57.936 87.56C55.344 90.152 52.192 92.168 48.48 93.608C44.768 95.048 40.592 95.768 35.952 95.768C31.28 95.768 27.088 95.048 23.376 93.608C19.664 92.168 16.512 90.152 13.92 87.56C11.328 84.968 9.344 81.88 7.968 78.296C6.592 74.712 5.904 70.776 5.904 66.488V25.064H22.128V66.44C22.128 68.904 22.432 71.112 23.04 73.064C23.68 74.984 24.592 76.632 25.776 78.008C26.96 79.352 28.4 80.392 30.096 81.128C31.824 81.832 33.776 82.184 35.952 82.184Z" fill="#2A718F"/>
    <path d="M79.952 109.29C82.128 109.29 84.064 108.938 85.76 108.234C87.488 107.498 88.944 106.458 90.128 105.114C91.312 103.77 92.208 102.138 92.816 100.218C93.456 98.2664 93.776 96.0584 93.776 93.5944V52.1704H110V93.5944C110 97.8824 109.296 101.818 107.888 105.402C106.512 108.986 104.528 112.074 101.936 114.666C99.344 117.258 96.192 119.274 92.48 120.714C88.768 122.154 84.592 122.874 79.952 122.874C75.28 122.874 71.088 122.154 67.376 120.714C63.664 119.274 60.512 117.258 57.92 114.666C55.328 112.074 53.344 108.986 51.968 105.402C50.592 101.818 49.904 97.8824 49.904 93.5944V52.1704H66.128V93.5464C66.128 96.0104 66.432 98.2184 67.04 100.17C67.68 102.09 68.592 103.738 69.776 105.114C70.96 106.458 72.4 107.498 74.096 108.234C75.824 108.938 77.776 109.29 79.952 109.29Z" fill="#2A718F"/>
    </svg>